<?xml version="1.0" encoding="iso-8859-1"?>
<!-- Uploaded to: SVG Repo, www.svgrepo.com, Generator: SVG Repo Mixer Tools -->
<svg height="800px" width="800px" version="1.1" id="Layer_1" xmlns="http://www.w3.org/2000/svg" xmlns:xlink="http://www.w3.org/1999/xlink" 
	 viewBox="0 0 449.341 449.341" xml:space="preserve">
<g transform="translate(0 -1020.36)">
	<g shape-rendering="auto" image-rendering="auto" color-rendering="auto" color-interpolation="sRGB">
		<path style="fill:#EBFEFF;" d="M249.074,1235.164c-7.816,3.012-16.206,6.293-24.408,6.293c-8.117,0-16.401-3.186-24.152-6.164
			c9.182,12.199,16.71,25.979,21.916,41.789c1.038-0.289,2.123-0.371,3.193-0.24c0.455,0.064,0.904,0.166,1.343,0.305
			c5.328-15.818,12.982-29.59,22.108-41.947L249.074,1235.164z"/>
		<path style="fill:#FFFFFF;" d="M224.668,1036.747c-6.484,0-12.947,1.28-17.812,3.877l-172.813,92.124
			c-0.423,0.24-0.756,0.607-1.155,0.848l155.281,79.596c0.041,0,0.081,0,0.122,0c0.288,0.123,0.569,0.262,0.841,0.416
			c0.605,0.305,5.957,3.004,13.469,6.029c7.916,3.188,17.787,6.029,22.062,6.029s14.303-2.842,22.219-6.029
			c7.617-3.066,13.176-5.896,13.625-6.127c0.211-0.148,0.429-0.287,0.653-0.416l155.313-79.596c-0.423-0.24-0.774-0.623-1.185-0.848
			l-172.781-92.125c-4.868-2.595-11.36-3.877-17.844-3.877L224.668,1036.747z"/>
		<path style="fill:#EBFEFF;" d="M224.669,1047.349c-5.757,0-11.493,1.137-15.813,3.439l-153.418,81.787
			c-0.363,0.24-0.671,0.545-1.028,0.736l137.854,70.66c0.041,0,0.081,0,0.122,0c0.255,0.107,0.503,0.23,0.744,0.367
			c0.544,0.24,5.291,2.668,11.958,5.352c7.027,2.828,15.791,5.35,19.586,5.35c3.798,0,12.698-2.521,19.725-5.35
			c6.761-2.721,11.697-5.232,12.096-5.438c0.195-0.133,0.397-0.256,0.605-0.367l137.882-70.662c-0.363-0.24-0.689-0.545-1.052-0.752
			l-153.39-81.785c-4.324-2.305-10.085-3.439-15.841-3.439L224.669,1047.349z"/>
		<path style="fill:#29A3EC;" d="M20.345,1144.672c-2.449,3.803-4.142,7.746-4.142,11.119v185.297
			c0,8.02,8.201,19.404,17.085,23.617l173.645,82.252c4.312,2.051,7.459,3.35,10.207,4.336v-150.719
			c-4.275-33.084-17.578-51.996-37.154-74.119l-159.638-81.783H20.345z"/>
		<path style="fill:#EE746C;" d="M429.868,1143.277l-160.901,82.43c-20.782,21.518-31.383,41.227-37.682,75.615v151.361
			c2.77-0.992,5.944-2.305,10.3-4.373l175.256-83c8.964-4.252,17.241-15.74,17.241-23.834v-186.982
			c0-3.402-1.742-7.379-4.215-11.219L429.868,1143.277z"/>
		<path style="fill:#FB9761;" d="M418.71,1160.293l-160.901,82.432c-20.782,21.518-31.383,41.227-37.682,75.615v151.361
			c2.77-0.992,5.944-2.305,10.3-4.373l175.256-83c8.964-4.252,17.241-15.742,17.241-23.834v-186.982
			C422.925,1168.107,421.184,1164.132,418.71,1160.293z"/>
		<path style="fill:#3CDEF6;" d="M30.759,1160.293c-2.449,3.805-4.142,7.748-4.142,11.119v185.297
			c0,8.021,8.201,19.406,17.085,23.617l173.645,82.252c4.312,2.049,7.459,3.35,10.207,4.336v-150.719
			c-4.275-33.084-17.578-51.996-37.154-74.119l-159.638-81.781L30.759,1160.293z"/>
		<path style="fill:#5A3392;" d="M224.67,1020.361c-8.841,0-17.691,2.056-25.375,6.157l-172.781,92.187
			c-13.545,7.227-25.844,21.014-25.844,37.781v184.344c0,16.637,11.806,31.152,26.188,37.969l172.781,81.938
			c9.88,4.686,17.015,7.623,25.031,7.623c8.016,0,15.151-2.939,25.031-7.623l172.781-81.938
			c14.382-6.816,26.188-21.33,26.188-37.969v-184.344c0-16.766-12.299-30.555-25.844-37.781l-172.781-92.188
			C242.361,1022.417,233.511,1020.36,224.67,1020.361L224.67,1020.361z M206.827,1040.642c9.732-5.192,25.955-5.192,35.688,0
			l172.781,92.156c9.081,4.844,17.375,15.834,17.375,23.688v184.344c0,7.98-8.194,19.313-17.031,23.5l-172.781,81.938
			c-9.44,4.475-14.264,6.094-18.188,6.094s-8.748-1.617-18.188-6.094L33.702,1364.33c-8.839-4.189-17.031-15.52-17.031-23.5
			v-184.344c0-7.854,8.294-18.844,17.375-23.686L206.827,1040.642L206.827,1040.642z"/>
	</g>
	<g>
		<path style="fill:#FFFFFF;" d="M368.67,1220.365c0,4.418,3.582,8,8,8c0,0,0,0,0.001,0c4.418,0,8-3.582,8-8l0,0
			c0-4.418-3.582-8-8-8c0,0,0,0,0,0C372.252,1212.365,368.67,1215.947,368.67,1220.365L368.67,1220.365z"/>
		<path style="fill:#FFFFFF;" d="M368.67,1332.365c0,4.418,3.582,8,8,8c0,0,0,0,0.001,0c4.418,0,8-3.582,8-8l0,0
			c0-4.418-3.582-8-8-8c0,0,0,0,0,0C372.252,1324.365,368.67,1327.947,368.67,1332.365L368.67,1332.365z"/>
		<path style="fill:#FFFFFF;" d="M272.67,1268.365c0,4.418,3.582,8,8,8s8-3.582,8.001-8l0,0c0-4.418-3.582-8-8-8c0,0,0,0-0.001,0
			C276.252,1260.365,272.67,1263.947,272.67,1268.365z"/>
		<path style="fill:#FFFFFF;" d="M272.67,1380.357c0,4.418,3.582,8,8,8s8-3.582,8.001-8l0,0c0-4.418-3.582-8-8-8c0,0,0,0-0.001,0
			C276.252,1372.357,272.67,1375.939,272.67,1380.357z"/>
	</g>
	<g>
		<path style="fill:#5A3392;" d="M168.67,1132.365c4.418,0,8-3.582,8-8l0,0c0-4.418-3.582-8-8-8h0c-4.418,0-8,3.582-8,8l0,0
			C160.67,1128.783,164.252,1132.365,168.67,1132.365L168.67,1132.365z"/>
		<path style="fill:#5A3392;" d="M280.67,1132.365c4.418,0,8-3.582,8.001-8l0,0c0-4.418-3.582-8-8-8c0,0,0,0-0.001,0
			c-4.418,0-8,3.582-8,8C272.67,1128.783,276.252,1132.365,280.67,1132.365z"/>
	</g>
	<g>
		<path style="fill:#FFFFFF;" d="M104.67,1300.365c0,4.418,3.582,8,8,8l0,0c4.418,0,8-3.582,8-8l0,0c0-4.418-3.582-8-8-8l0,0
			C108.252,1292.365,104.67,1295.947,104.67,1300.365L104.67,1300.365z"/>
		<path style="fill:#FFFFFF;" d="M160.67,1380.357c0,4.418,3.582,8,8,8l0,0c4.418,0,8-3.582,8-8l0,0c0-4.418-3.582-8-8-8h0
			C164.252,1372.357,160.67,1375.939,160.67,1380.357L160.67,1380.357z"/>
		<path style="fill:#FFFFFF;" d="M48.67,1220.365c0,4.418,3.582,8,8,8c0,0,0,0,0,0c4.418,0,8-3.582,8-8l0,0c0-4.418-3.582-8-8-8
			c0,0,0,0,0,0C52.252,1212.365,48.67,1215.947,48.67,1220.365L48.67,1220.365z"/>
	</g>
	<g shape-rendering="auto" image-rendering="auto" color-rendering="auto" color-interpolation="sRGB">
		<path style="fill:#5A3392;" d="M428.639,1128.33c-1.263,0.014-2.506,0.326-3.625,0.912l-163.875,83.969
			c-4.043,1.783-5.876,6.506-4.093,10.549s6.505,5.875,10.548,4.094c0.283-0.125,0.559-0.268,0.826-0.424l163.906-83.938
			c3.951-1.979,5.551-6.785,3.572-10.736c-1.373-2.742-4.193-4.459-7.26-4.418V1128.33z"/>
		<path style="fill:#5A3392;" d="M20.483,1128.298c-4.419,0.025-7.98,3.629-7.953,8.049c0.018,3.037,1.755,5.803,4.485,7.139
			l163.906,83.938c3.81,2.238,8.713,0.965,10.952-2.844c2.239-3.811,0.965-8.713-2.844-10.951c-0.267-0.158-0.543-0.299-0.826-0.424
			l-163.875-83.969c-1.182-0.631-2.504-0.955-3.844-0.943V1128.298z"/>
		<path style="fill:#5A3392;" d="M184.358,1212.361c-1.005,0.055-1.991,0.299-2.906,0.721c-0.202,0.088-0.4,0.184-0.594,0.287
			c-0.074,0.053-0.147,0.105-0.219,0.16c-0.084,0.053-0.168,0.105-0.25,0.16c-0.138,0.092-0.274,0.188-0.406,0.287
			c-0.021,0-0.042,0-0.062,0c-0.172,0.127-0.339,0.26-0.5,0.4c-0.042,0.053-0.084,0.105-0.125,0.16
			c-0.152,0.148-0.298,0.305-0.437,0.465c-0.118,0.119-0.233,0.242-0.344,0.367c-0.075,0.094-0.148,0.189-0.219,0.287
			c-0.098,0.131-0.192,0.264-0.281,0.4c-0.054,0.094-0.106,0.189-0.157,0.287c-0.043,0.063-0.084,0.127-0.125,0.191
			c-0.088,0.141-0.171,0.285-0.25,0.432c-0.021,0.053-0.042,0.107-0.062,0.16c-0.105,0.236-0.199,0.477-0.281,0.721
			c-0.178,0.51-0.303,1.035-0.375,1.568c-0.029,0.207-0.05,0.414-0.062,0.623c-0.001,0.064-0.001,0.127,0,0.191
			c-0.026,0.803,0.069,1.604,0.281,2.377c0.357,1.318,1.046,2.523,2,3.5c20.029,22.543,33.62,41.527,37.813,75.344
			c0.547,4.385,4.545,7.496,8.93,6.947c3.472-0.432,6.26-3.072,6.882-6.516c6.258-34.609,16.799-54.195,37.813-75.783
			c3.098-3.15,3.055-8.217-0.096-11.314c-2.465-2.424-6.207-2.99-9.279-1.404c0,0-6.272,3.189-14.188,6.375
			c-7.916,3.188-17.849,6.094-22.125,6.094s-14.24-2.906-22.156-6.094c-7.738-3.113-13.602-6.08-13.875-6.217
			c-1.315-0.77-2.822-1.146-4.344-1.088L184.358,1212.361z M242.639,1237.142c-7.43,10.816-13.456,23.582-17.875,37.063
			c-4.521-13.49-10.186-26.314-17.813-37.031c5.938,1.986,11.806,4.594,17.781,4.594
			C230.757,1241.767,236.657,1239.152,242.639,1237.142z"/>
		<path style="fill:#5A3392;" d="M224.545,1276.361c-4.418,0.068-7.944,3.707-7.875,8.125l0,0v171.875
			c-0.062,4.418,3.469,8.051,7.887,8.113c4.418,0.063,8.051-3.469,8.113-7.887c0.001-0.076,0.001-0.15,0-0.227v-171.875
			c0.069-4.418-3.456-8.057-7.875-8.125C224.712,1276.359,224.629,1276.359,224.545,1276.361L224.545,1276.361z"/>
	</g>
</g>
</svg>